<svg width="100" height="100" viewBox="0 0 100 100" fill="none" xmlns="http://www.w3.org/2000/svg">
<g clip-path="url(#clip0_2_81)">
<ellipse cx="49.9999" cy="50" rx="49.9999" ry="50" fill="url(#paint0_linear_2_81)"/>
<path d="M33.7682 43.1113C33.7682 45.4955 31.8352 47.4285 29.451 47.4285C27.0668 47.4285 25.1341 45.4955 25.1341 43.1113C25.1341 40.7271 27.0668 38.7944 29.451 38.7944C31.8352 38.7944 33.7682 40.7271 33.7682 43.1113Z" fill="#444444"/>
<path d="M72.9532 43.1113C72.9532 45.4955 71.0205 47.4285 68.6363 47.4285C66.2521 47.4285 64.3192 45.4955 64.3192 43.1113C64.3192 40.7271 66.2521 38.7944 68.6363 38.7944C71.0205 38.7944 72.9532 40.7271 72.9532 43.1113Z" fill="#444444"/>
<path d="M66.5111 63.8342C66.9538 62.7936 66.469 61.5906 65.4285 61.1479C64.3879 60.7051 63.1849 61.19 62.7422 62.2305C62.7345 62.2486 60.1529 68.5919 49.871 68.5919C39.6352 68.5919 37.2896 62.3046 37.2827 62.2867C36.8711 61.2329 35.6825 60.7123 34.6286 61.1239C33.5748 61.5355 33.0542 62.7241 33.4658 63.778C33.4757 63.8033 36.809 72.6975 49.871 72.6975C62.8876 72.6975 66.5004 63.8592 66.5111 63.8342Z" fill="#444444"/>
</g>
<defs>
<linearGradient id="paint0_linear_2_81" x1="109.151" y1="15.8492" x2="-9.1507" y2="84.1502" gradientUnits="userSpaceOnUse">
<stop stop-color="#EFC666"/>
<stop offset="0.121569" stop-color="#EFC666"/>
<stop offset="0.360784" stop-color="#EFC666"/>
<stop offset="0.411765" stop-color="#EFC666"/>
<stop offset="1" stop-color="#E9AC64"/>
</linearGradient>
<clipPath id="clip0_2_81">
<rect width="100" height="100" fill="white"/>
</clipPath>
</defs>
</svg>
