<svg width="100" height="100" viewBox="0 0 100 100" fill="none" xmlns="http://www.w3.org/2000/svg">
<g clip-path="url(#clip0_2_49)">
<ellipse cx="49.9999" cy="50" rx="49.9999" ry="50" fill="url(#paint0_linear_2_49)"/>
<path d="M19.6695 51.8374C19.178 50.819 19.6053 49.5947 20.6237 49.1032C21.6421 48.6117 22.8664 49.039 23.3579 50.0574C23.3608 50.0638 24.4264 52.3028 28.1735 52.3028C31.7298 52.3028 32.4634 50.2316 32.4656 50.2258C32.8641 49.1674 34.0453 48.6325 35.1036 49.031C36.162 49.4295 36.6969 50.6107 36.2984 51.6691C36.2933 51.6827 34.5961 56.4084 28.1735 56.4084C21.8531 56.4084 19.6759 51.8505 19.6695 51.8374Z" fill="#444444"/>
<path d="M62.5363 51.8374C62.0448 50.819 62.4721 49.5947 63.4905 49.1032C64.5089 48.6117 65.7333 49.039 66.2247 50.0574C66.2277 50.0638 67.2935 52.3028 71.0403 52.3028C74.5966 52.3028 75.3305 50.2316 75.3326 50.2258C75.7312 49.1674 76.9123 48.6325 77.9707 49.031C79.0291 49.4295 79.564 50.6107 79.1655 51.6691C79.1604 51.6827 77.463 56.4084 71.0403 56.4084C64.7202 56.4084 62.5427 51.8505 62.5363 51.8374Z" fill="#444444"/>
<path d="M66.5108 76.4084C66.9535 77.449 66.4687 78.652 65.4282 79.0947C64.3876 79.5375 63.1846 79.0526 62.7419 78.0121C62.7342 77.994 60.1526 71.6507 49.8707 71.6507C39.6349 71.6507 37.2893 77.938 37.2824 77.9559C36.8708 79.0097 35.6822 79.5303 34.6283 79.1187C33.5745 78.7071 33.0539 77.5185 33.4655 76.4646C33.4754 76.4393 36.8087 67.545 49.8707 67.545C62.8873 67.545 66.5001 76.3834 66.5108 76.4084Z" fill="#444444"/>
<path d="M78.2294 58.2951L82.3385 69.6615C83.208 72.0659 81.9635 74.7202 79.5587 75.5892C77.1543 76.4587 74.5005 75.2141 73.631 72.8097C73.249 71.7526 73.2775 70.6423 73.631 69.6615L77.7404 58.2951C77.7891 58.1603 77.9383 58.0902 78.0734 58.139C78.1485 58.1661 78.2039 58.2255 78.2294 58.2951Z" fill="#90B5E6"/>
</g>
<defs>
<linearGradient id="paint0_linear_2_49" x1="109.151" y1="15.8492" x2="-9.1507" y2="84.1502" gradientUnits="userSpaceOnUse">
<stop stop-color="#EFC666"/>
<stop offset="0.121569" stop-color="#EFC666"/>
<stop offset="0.360784" stop-color="#EFC666"/>
<stop offset="0.411765" stop-color="#EFC666"/>
<stop offset="1" stop-color="#E9AC64"/>
</linearGradient>
<clipPath id="clip0_2_49">
<rect width="100" height="100" fill="white"/>
</clipPath>
</defs>
</svg>
