<svg width="100" height="100" viewBox="0 0 100 100" fill="none" xmlns="http://www.w3.org/2000/svg">
<g clip-path="url(#clip0_2_35)">
<circle cx="50" cy="50" r="50" fill="url(#paint0_linear_2_35)"/>
<path d="M99.908 53.006C98.2479 80.5694 74.5574 101.568 46.994 99.908C19.4306 98.2476 -1.56807 74.5574 0.0920273 46.994C1.75212 19.4304 25.4426 -1.56831 53.006 0.0920558C80.5694 1.75215 101.568 25.4426 99.908 53.006Z" fill="url(#paint1_linear_2_35)"/>
<path d="M20.2893 60.0487C19.7978 59.0303 20.2251 57.806 21.2435 57.3146C22.2618 56.8231 23.4861 57.2504 23.9776 58.2688C23.9805 58.2751 25.0461 60.5141 28.793 60.5141C32.3492 60.5141 33.0828 58.443 33.085 58.4371C33.4835 57.3788 34.6646 56.8439 35.7229 57.2424C36.7813 57.6409 37.3162 58.822 36.9177 59.8804C36.9126 59.894 35.215 64.6196 28.793 64.6196C22.4723 64.6196 20.2957 60.0618 20.2893 60.0487Z" fill="#2B2A29"/>
<path d="M63.1547 60.0487C62.6632 59.0303 63.0905 57.806 64.1089 57.3146C65.1273 56.8231 66.3516 57.2504 66.843 58.2688C66.846 58.2751 67.9115 60.5141 71.6584 60.5141C75.2146 60.5141 75.9482 58.443 75.9504 58.4371C76.3489 57.3788 77.53 56.8439 78.5884 57.2424C79.6467 57.6409 80.1816 58.822 79.7831 59.8804C79.778 59.894 78.0809 64.6196 71.6584 64.6196C65.3377 64.6196 63.1611 60.0618 63.1547 60.0487Z" fill="#2B2A29"/>
<path d="M71.2826 81.485C71.8537 82.4635 71.5234 83.7203 70.545 84.2914C69.5665 84.8625 68.3097 84.5322 67.7386 83.5538C67.7248 83.5301 63.0314 75.1718 49.8404 75.1718C36.6795 75.1718 32.2988 83.4741 32.2861 83.4976C31.7461 84.4896 30.5037 84.8556 29.5117 84.3156C28.5197 83.7757 28.1536 82.5332 28.6936 81.5412C28.7099 81.5114 34.2309 71.0663 49.8404 71.0663C65.42 71.0663 71.2653 81.4555 71.2826 81.485Z" fill="#2B2A29"/>
<path d="M26.1597 46.4705C25.2122 45.8552 24.9429 44.5875 25.5582 43.64C26.1736 42.6924 27.4413 42.4231 28.3888 43.0385L38.5276 49.649C39.4751 50.2644 39.7444 51.5321 39.1291 52.4796C38.5138 53.4271 37.246 53.6964 36.2985 53.0811L26.1597 46.4705Z" fill="#2B2A29"/>
<path d="M71.9947 42.3214C72.9422 41.7061 74.2099 41.9754 74.8252 42.9229C75.4406 43.8705 75.1713 45.1382 74.2238 45.7535L62.9851 53.0812C62.0375 53.6965 60.7698 53.4272 60.1545 52.4797C59.5391 51.5322 59.8085 50.2644 60.756 49.6491L71.9947 42.3214Z" fill="#2B2A29"/>
</g>
<defs>
<linearGradient id="paint0_linear_2_35" x1="109.151" y1="15.8492" x2="-9.15056" y2="84.1505" gradientUnits="userSpaceOnUse">
<stop stop-color="#EFC666"/>
<stop offset="0.121569" stop-color="#EFC666"/>
<stop offset="0.360784" stop-color="#EFC666"/>
<stop offset="0.411765" stop-color="#EFC666"/>
<stop offset="1" stop-color="#E9AC64"/>
</linearGradient>
<linearGradient id="paint1_linear_2_35" x1="50.0001" y1="-0.000112491" x2="50.0001" y2="100" gradientUnits="userSpaceOnUse">
<stop stop-color="#DB622A"/>
<stop offset="0.309804" stop-color="#DB622A"/>
<stop offset="0.741176" stop-color="#E9AC64" stop-opacity="0"/>
<stop offset="1" stop-color="#E9AC64"/>
</linearGradient>
<clipPath id="clip0_2_35">
<rect width="100" height="100" fill="white"/>
</clipPath>
</defs>
</svg>
