<svg width="100" height="100" viewBox="0 0 100 100" fill="none" xmlns="http://www.w3.org/2000/svg">
<g clip-path="url(#clip0_2_16)">
<ellipse cx="49.9999" cy="50" rx="49.9999" ry="50" fill="url(#paint0_linear_2_16)"/>
<path d="M36.1409 65.0882C35.0074 65.0882 34.0881 64.1689 34.0881 63.0354C34.0881 61.9019 35.0074 60.9826 36.1409 60.9826H63.8586C64.9921 60.9826 65.9114 61.9019 65.9114 63.0354C65.9114 64.1689 64.9921 65.0882 63.8586 65.0882H36.1409Z" fill="#444444"/>
<path d="M33.7678 43.1111C33.7678 45.4954 31.8349 47.4283 29.4507 47.4283C27.0665 47.4283 25.1338 45.4954 25.1338 43.1111C25.1338 40.7269 27.0665 38.7943 29.4507 38.7943C31.8349 38.7943 33.7678 40.7269 33.7678 43.1111Z" fill="#444444"/>
<path d="M72.9532 43.1111C72.9532 45.4954 71.0205 47.4283 68.6363 47.4283C66.2521 47.4283 64.3192 45.4954 64.3192 43.1111C64.3192 40.7269 66.2521 38.7943 68.6363 38.7943C71.0205 38.7943 72.9532 40.7269 72.9532 43.1111Z" fill="#444444"/>
</g>
<defs>
<linearGradient id="paint0_linear_2_16" x1="109.151" y1="15.8492" x2="-9.1507" y2="84.1502" gradientUnits="userSpaceOnUse">
<stop stop-color="#EFC666"/>
<stop offset="0.121569" stop-color="#EFC666"/>
<stop offset="0.360784" stop-color="#EFC666"/>
<stop offset="0.411765" stop-color="#EFC666"/>
<stop offset="1" stop-color="#E9AC64"/>
</linearGradient>
<clipPath id="clip0_2_16">
<rect width="100" height="100" fill="white"/>
</clipPath>
</defs>
</svg>
