<svg width="100" height="100" viewBox="0 0 100 100" fill="none" xmlns="http://www.w3.org/2000/svg">
<g clip-path="url(#clip0_2_43)">
<ellipse cx="49.9999" cy="50" rx="49.9999" ry="50" fill="url(#paint0_linear_2_43)"/>
<path d="M50.0001 75.0531C65.2217 75.0531 77.8113 63.7855 79.8841 49.1364C80.2025 46.8872 78.456 44.8696 76.1845 44.8696H23.8157C21.5442 44.8696 19.7977 46.8872 20.1161 49.1364C22.1889 63.7855 34.7788 75.0531 50.0001 75.0531Z" fill="#444444"/>
<path d="M36.3637 71.8025C38.7874 66.7069 43.9823 63.1842 50 63.1842C56.0181 63.1842 61.2127 66.7069 63.6363 71.8025C59.5403 73.8806 54.9075 75.053 50 75.053C45.0929 75.053 40.4598 73.8806 36.3637 71.8025Z" fill="#DB6746"/>
<path d="M27.4876 25.6398C26.4913 25.1041 26.1178 23.8616 26.6535 22.8653C27.1892 21.869 28.4317 21.4955 29.428 22.0312L41.1675 28.3391C42.1638 28.8749 42.5373 30.1173 42.0016 31.1136C41.7856 31.515 41.455 31.8155 41.0717 31.9959L29.38 37.9292C28.3704 38.4386 27.1388 38.0329 26.6295 37.0233C26.1202 36.0136 26.5259 34.7821 27.5355 34.2728L35.7737 30.092L27.4876 25.6398Z" fill="#444444"/>
<path d="M70.572 22.0312C71.5683 21.4955 72.8108 21.869 73.3465 22.8653C73.8822 23.8616 73.5087 25.1041 72.5124 25.6398L64.2263 30.092L72.4644 34.2728C73.474 34.7821 73.8798 36.0136 73.3704 37.0233C72.8611 38.0329 71.6296 38.4386 70.6199 37.9292L58.9283 31.9959C58.545 31.8155 58.2144 31.515 57.9983 31.1136C57.4626 30.1173 57.8361 28.8749 58.8324 28.3391L70.572 22.0312Z" fill="#444444"/>
</g>
<defs>
<linearGradient id="paint0_linear_2_43" x1="109.151" y1="15.8492" x2="-9.1507" y2="84.1502" gradientUnits="userSpaceOnUse">
<stop stop-color="#EFC666"/>
<stop offset="0.121569" stop-color="#EFC666"/>
<stop offset="0.360784" stop-color="#EFC666"/>
<stop offset="0.411765" stop-color="#EFC666"/>
<stop offset="1" stop-color="#E9AC64"/>
</linearGradient>
<clipPath id="clip0_2_43">
<rect width="100" height="100" fill="white"/>
</clipPath>
</defs>
</svg>
