<svg width="99" height="100" viewBox="0 0 99 100" fill="none" xmlns="http://www.w3.org/2000/svg">
<g clip-path="url(#clip0_2_75)">
<ellipse cx="49.4999" cy="50" rx="49.4999" ry="50" fill="url(#paint0_linear_2_75)"/>
<path d="M33.4305 43.1112C33.4305 45.4954 31.5169 47.4283 29.1565 47.4283C26.7961 47.4283 24.8828 45.4954 24.8828 43.1112C24.8828 40.727 26.7961 38.7943 29.1565 38.7943C31.5169 38.7943 33.4305 40.727 33.4305 43.1112Z" fill="#444444"/>
<path d="M72.224 43.1112C72.224 45.4954 70.3106 47.4283 67.9503 47.4283C65.5899 47.4283 63.6763 45.4954 63.6763 43.1112C63.6763 40.727 65.5899 38.7943 67.9503 38.7943C70.3106 38.7943 72.224 40.727 72.224 43.1112Z" fill="#444444"/>
<path d="M65.846 69.846C66.2843 70.8865 65.8043 72.0896 64.7742 72.5323C63.7441 72.9751 62.5531 72.4902 62.1148 71.4497C62.1071 71.4316 59.5513 65.0883 49.3723 65.0883C39.2388 65.0883 36.9167 71.3757 36.9098 71.3935C36.5024 72.4474 35.3256 72.9679 34.2823 72.5563C33.239 72.1447 32.7237 70.9561 33.1312 69.9022C33.1409 69.8769 36.4409 60.9826 49.3723 60.9826C62.2588 60.9826 65.8354 69.821 65.846 69.846Z" fill="#444444"/>
<path d="M24.4875 47.5712L28.6792 59.2831C29.5661 61.7606 28.2965 64.4956 25.8436 65.391C23.3909 66.2871 20.6838 65.0047 19.7966 62.527C19.4071 61.438 19.4361 60.2938 19.7966 59.2831L23.9885 47.5712C24.0384 47.4322 24.1906 47.36 24.3282 47.4103C24.405 47.4383 24.4614 47.4996 24.4875 47.5712Z" fill="#90B5E6"/>
</g>
<defs>
<linearGradient id="paint0_linear_2_75" x1="108.059" y1="15.8492" x2="-9.64476" y2="83.1257" gradientUnits="userSpaceOnUse">
<stop stop-color="#EFC666"/>
<stop offset="0.121569" stop-color="#EFC666"/>
<stop offset="0.360784" stop-color="#EFC666"/>
<stop offset="0.411765" stop-color="#EFC666"/>
<stop offset="1" stop-color="#E9AC64"/>
</linearGradient>
<clipPath id="clip0_2_75">
<rect width="99" height="100" fill="white"/>
</clipPath>
</defs>
</svg>
