<svg width="100" height="100" viewBox="0 0 100 100" fill="none" xmlns="http://www.w3.org/2000/svg">
<g clip-path="url(#clip0_2_86)">
<ellipse cx="50" cy="50" rx="50" ry="50" fill="url(#paint0_linear_2_86)"/>
<path d="M19.2342 62.4274C26.0977 62.4274 31.6617 56.8634 31.6617 49.9999C31.6617 43.1364 26.0977 37.5725 19.2342 37.5725C12.3707 37.5725 6.80676 43.1364 6.80676 49.9999C6.80676 56.8634 12.3707 62.4274 19.2342 62.4274Z" fill="url(#paint1_radial_2_86)"/>
<path d="M80.7658 62.4274C87.6292 62.4274 93.1932 56.8634 93.1932 49.9999C93.1932 43.1364 87.6292 37.5725 80.7658 37.5725C73.9023 37.5725 68.3383 43.1364 68.3383 49.9999C68.3383 56.8634 73.9023 62.4274 80.7658 62.4274Z" fill="url(#paint2_radial_2_86)"/>
<path d="M50 74.9421C61.5601 74.9421 71.1217 66.3848 72.6961 55.2592C72.9377 53.5508 71.6113 52.0188 69.8862 52.0188H30.1136C28.3882 52.0188 27.0621 53.5508 27.3037 55.2592C28.8781 66.3848 38.4397 74.9421 50 74.9421Z" fill="#444444"/>
<path d="M39.6437 72.4735C41.4844 68.6034 45.4297 65.928 50.0002 65.928C54.5707 65.928 58.5159 68.6034 60.3564 72.4735C57.2455 74.0516 53.727 74.9422 50.0002 74.9422C46.2731 74.9422 42.7546 74.0516 39.6437 72.4735Z" fill="#DB6746"/>
<path fill-rule="evenodd" clip-rule="evenodd" d="M34.2937 21.0057C31.7688 21.6522 29.9166 23.8756 29.5826 26.2481C28.1491 24.3284 25.4564 23.2693 22.9316 23.9158C19.7754 24.7243 17.8648 27.77 18.7058 31.0522C19.8374 35.4708 25.5401 37.777 33.7865 42.6602C38.6697 34.4138 42.5617 29.6501 41.4298 25.2315C40.5891 21.9493 37.4496 20.1972 34.2937 21.0057Z" fill="#D1244D"/>
<path fill-rule="evenodd" clip-rule="evenodd" d="M65.7068 21.0057C62.5506 20.1972 59.4114 21.9493 58.5704 25.2315C57.4388 29.6501 61.3308 34.4138 66.214 42.6602C74.4601 37.777 80.1631 35.4708 81.295 31.0522C82.1357 27.77 80.2251 24.7243 77.0689 23.9158C74.544 23.2693 71.8511 24.3284 70.4176 26.2481C70.0839 23.8756 68.2316 21.6522 65.7068 21.0057Z" fill="#D1244D"/>
</g>
<defs>
<linearGradient id="paint0_linear_2_86" x1="109.151" y1="15.8492" x2="-9.15057" y2="84.1505" gradientUnits="userSpaceOnUse">
<stop stop-color="#EFC666"/>
<stop offset="0.121569" stop-color="#EFC666"/>
<stop offset="0.360784" stop-color="#EFC666"/>
<stop offset="0.411765" stop-color="#EFC666"/>
<stop offset="1" stop-color="#E9AC64"/>
</linearGradient>
<radialGradient id="paint1_radial_2_86" cx="0" cy="0" r="1" gradientUnits="userSpaceOnUse" gradientTransform="translate(19.2342 49.9999) scale(10.2907 10.2907)">
<stop stop-color="#E07B3B"/>
<stop offset="0.839216" stop-color="#E07B3B" stop-opacity="0"/>
<stop offset="1" stop-color="#E07B3B" stop-opacity="0"/>
</radialGradient>
<radialGradient id="paint2_radial_2_86" cx="0" cy="0" r="1" gradientUnits="userSpaceOnUse" gradientTransform="translate(80.7658 49.9999) scale(10.2907 10.2907)">
<stop stop-color="#E07B3B"/>
<stop offset="0.839216" stop-color="#E07B3B" stop-opacity="0"/>
<stop offset="1" stop-color="#E07B3B" stop-opacity="0"/>
</radialGradient>
<clipPath id="clip0_2_86">
<rect width="100" height="100" fill="white"/>
</clipPath>
</defs>
</svg>
