<svg width="100" height="100" viewBox="0 0 100 100" fill="none" xmlns="http://www.w3.org/2000/svg">
<g clip-path="url(#clip0_2_70)">
<ellipse cx="49.9999" cy="50" rx="49.9999" ry="50" fill="url(#paint0_linear_2_70)"/>
<path d="M33.7678 43.1113C33.7678 45.4955 31.8349 47.4285 29.4507 47.4285C27.0665 47.4285 25.1338 45.4955 25.1338 43.1113C25.1338 40.7271 27.0665 38.7944 29.4507 38.7944C31.8349 38.7944 33.7678 40.7271 33.7678 43.1113Z" fill="#444444"/>
<path d="M72.9532 43.1113C72.9532 45.4955 71.0205 47.4285 68.6363 47.4285C66.2521 47.4285 64.3192 45.4955 64.3192 43.1113C64.3192 40.7271 66.2521 38.7944 68.6363 38.7944C71.0205 38.7944 72.9532 40.7271 72.9532 43.1113Z" fill="#444444"/>
<path d="M66.5111 69.846C66.9538 70.8865 66.469 72.0896 65.4285 72.5323C64.3879 72.9751 63.1849 72.4902 62.7422 71.4497C62.7345 71.4316 60.1529 65.0883 49.871 65.0883C39.6352 65.0883 37.2896 71.3756 37.2827 71.3935C36.8711 72.4473 35.6825 72.9679 34.6286 72.5563C33.5748 72.1447 33.0542 70.9561 33.4658 69.9022C33.4757 69.8769 36.809 60.9826 49.871 60.9826C62.8876 60.9826 66.5004 69.821 66.5111 69.846Z" fill="#444444"/>
</g>
<defs>
<linearGradient id="paint0_linear_2_70" x1="109.151" y1="15.8492" x2="-9.15069" y2="84.1502" gradientUnits="userSpaceOnUse">
<stop stop-color="#EFC666"/>
<stop offset="0.121569" stop-color="#EFC666"/>
<stop offset="0.360784" stop-color="#EFC666"/>
<stop offset="0.411765" stop-color="#EFC666"/>
<stop offset="1" stop-color="#E9AC64"/>
</linearGradient>
<clipPath id="clip0_2_70">
<rect width="100" height="100" fill="white"/>
</clipPath>
</defs>
</svg>
